<?xml version="1.0" encoding="UTF-8"?>
<svg width="210px" height="39px" viewBox="0 0 210 39" version="1.1" xmlns="http://www.w3.org/2000/svg" xmlns:xlink="http://www.w3.org/1999/xlink">
    <!-- Generator: Sketch 57.1 (83088) - https://sketch.com -->
    <title>Course Hero Logo / White</title>
    <desc>Created with Sketch.</desc>
    <g id="9-3" stroke="none" stroke-width="1" fill="none" fill-rule="evenodd">
        <g id="Homepage-redesign-2019" transform="translate(-42.000000, -31.000000)" fill="#FFFFFF">
            <g id="header" transform="translate(0.000000, 16.000000)">
                <g id="Course-Hero-Logo-/-White" transform="translate(42.000000, 15.000000)">
                    <path d="M67.1470551,23.5082195 L68.507161,23.5082195 L67.9425636,28.2786613 C65.8892797,29.2176707 63.4765042,29.8353949 60.19125,29.8353949 C53.413411,29.8353949 49.6405297,25.4115127 49.6405297,20.3206426 C49.6405297,14.0178849 54.3895551,10.0635074 60.395911,10.0635074 C63.887161,10.0635074 66.1206356,10.9780991 67.4549364,11.818581 L67.609322,16.069826 L66.2741314,16.069826 C65.1453814,12.9062383 63.1939831,11.6947791 60.1391949,11.6947791 C55.1850636,11.6947791 53.3884958,15.229344 53.3884958,19.3563588 C53.3884958,23.9533066 55.6215254,28.2041232 60.7300424,28.2041232 C64.4010381,28.2041232 65.96625,26.6229719 67.1470551,23.5082195" id="Fill-1"></path>
                    <path d="M81.6748729,23.6076037 C81.6748729,20.2957965 80.109661,17.7255154 77.285339,17.7255154 C74.8979237,17.7255154 73.820339,19.6776439 73.820339,22.3717269 C73.820339,25.6831058 75.4113559,28.2533869 78.2089831,28.2533869 C80.5963983,28.2533869 81.6748729,26.3261044 81.6748729,23.6076037 L81.6748729,23.6076037 Z M70.56,23.2370549 C70.56,18.8868541 73.9226695,16.143079 78.004322,16.143079 C82.1620551,16.143079 84.9601271,18.9361178 84.9601271,22.7422758 C84.9601271,27.0920482 81.5720975,29.8353949 77.4904449,29.8353949 C73.331822,29.8353949 70.56,27.0432129 70.56,23.2370549 L70.56,23.2370549 Z" id="Fill-2"></path>
                    <path d="M96.8442585,27.4133333 C95.7920339,28.6736278 94.1747669,29.8353949 92.0449576,29.8353949 C89.580572,29.8353949 87.8351695,28.6492102 87.8351695,25.7576439 L87.8351695,19.2329853 C87.8351695,18.3925033 87.4498729,18.0712182 86.2686229,17.9229987 L85.8076907,17.8488889 L85.8076907,16.7612316 L90.27375,16.143079 L91.0438983,16.143079 L90.9148729,18.6889424 L90.9148729,25.3374029 C90.9148729,27.0432129 91.890572,27.7102008 93.2755932,27.7102008 C94.7135593,27.7102008 95.8685593,27.0179384 96.8442585,26.30083 L96.8442585,19.2329853 C96.8442585,18.3925033 96.4589619,18.0712182 95.2781568,17.9229987 L94.84125,17.8488889 L94.84125,16.7612316 L99.3086441,16.143079 L100.052987,16.143079 L99.9239619,18.6889424 L99.9239619,26.6229719 C99.9239619,27.4630254 100.206928,27.7102008 101.310318,27.8087282 L101.978136,27.8584203 L101.978136,28.9704953 L97.2553602,29.8353949 L96.7152331,29.8353949 L96.8442585,27.4133333" id="Fill-3"></path>
                    <path d="M108.374682,20.0237751 C109.632013,17.7006693 110.786568,16.143079 112.738411,16.143079 C113.354174,16.143079 113.738136,16.2917269 113.994852,16.4896386 L113.994852,19.1340295 L113.020487,19.1340295 C111.377415,19.1340295 109.991504,19.4553146 108.374682,21.1606961 L108.374682,27.0179384 C108.374682,28.2289692 109.016695,28.3035074 110.838623,28.5009906 L110.838623,29.5882195 L103.343136,29.5882195 L103.343136,28.5009906 C104.524386,28.3527711 105.294089,28.2289692 105.294089,27.0920482 L105.294089,19.010656 L103.471716,18.0463722 L103.471716,17.3793842 L107.578284,16.1190897 L108.502373,16.1190897 L108.374682,20.0237751" id="Fill-4"></path>
                    <path d="M115.354958,28.5502544 L115.201017,25.2632932 L116.535763,25.2632932 C117.02428,27.3640696 118.204195,28.4512985 120.309534,28.4512985 C122.002881,28.4512985 123.081801,27.7594645 123.081801,26.4002142 C123.081801,25.2632932 122.234682,24.8430522 120.822966,24.472075 L118.974343,23.9533066 C116.766674,23.3604284 115.354958,22.396573 115.354958,20.0490495 C115.354958,17.6021419 117.280996,16.143079 120.309534,16.143079 C122.158157,16.143079 123.620593,16.5389023 124.801398,17.2063186 L124.801398,20.2212584 L123.517373,20.2212584 C123.107161,18.3183936 122.002881,17.5276037 120.180953,17.5276037 C118.872013,17.5276037 117.974174,18.1209103 117.974174,19.3066667 C117.974174,20.2957965 118.564131,20.7160375 119.796102,21.0617403 L121.798665,21.6053548 C124.262606,22.2483534 125.674322,23.2858902 125.674322,25.7327979 C125.674322,28.327925 123.492458,29.8353949 120.283284,29.8353949 C118.127669,29.8353949 116.433432,29.2917805 115.354958,28.5502544" id="Fill-5"></path>
                    <path d="M130.243157,20.8891031 L136.81322,20.8891031 C136.81322,19.1091834 135.735191,17.7255154 133.605826,17.7255154 C131.706928,17.7255154 130.499428,19.035502 130.243157,20.8891031 L130.243157,20.8891031 Z M139.970784,21.4327175 L139.970784,22.1738153 L130.165297,22.1738153 C130.165297,25.4115127 131.731398,27.4133333 134.965487,27.4133333 C136.942246,27.4133333 138.328602,26.5235877 139.174831,25.5104685 L139.997034,25.8810174 C139.380826,27.8087282 137.583814,29.8353949 133.939068,29.8353949 C129.832055,29.8353949 127.291144,27.0920482 127.291144,23.4101205 C127.291144,19.0599197 130.268517,16.143079 134.220254,16.143079 C137.994025,16.143079 139.970784,18.4421954 139.970784,21.4327175 L139.970784,21.4327175 Z" id="Fill-6"></path>
                    <path d="M163.065445,20.4932798 L152.336758,20.4932798 L152.336758,26.4250602 C152.336758,28.0310576 153.208792,28.3035074 155.134386,28.3776171 L155.134386,29.5882195 L146.175572,29.5882195 L146.175572,28.3776171 C148.101165,28.3035074 148.974089,28.0310576 148.974089,26.4250602 L148.974089,13.4746988 C148.974089,11.8682731 148.101165,11.5962517 146.175572,11.5221419 L146.175572,10.3111111 L155.134386,10.3111111 L155.134386,11.5221419 C153.208792,11.5962517 152.336758,11.8682731 152.336758,13.4746988 L152.336758,19.010656 L163.065445,19.010656 L163.065445,13.4746988 C163.065445,11.8682731 162.192521,11.5962517 160.267373,11.5221419 L160.267373,10.3111111 L169.227076,10.3111111 L169.227076,11.5221419 C167.301928,11.5962517 166.429004,11.8682731 166.429004,13.4746988 L166.429004,26.4250602 C166.429004,28.0310576 167.301928,28.3035074 169.227076,28.3776171 L169.227076,29.5882195 L160.267373,29.5882195 L160.267373,28.3776171 C162.192521,28.3035074 163.065445,28.0310576 163.065445,26.4250602 L163.065445,20.4932798" id="Fill-7"></path>
                    <path d="M173.117415,20.8891031 L179.687924,20.8891031 C179.687924,19.1091834 178.609894,17.7255154 176.479195,17.7255154 C174.579407,17.7255154 173.374131,19.035502 173.117415,20.8891031 L173.117415,20.8891031 Z M182.845042,21.4327175 L182.845042,22.1738153 L173.039555,22.1738153 C173.039555,25.4115127 174.605212,27.4133333 177.839301,27.4133333 C179.815614,27.4133333 181.20286,26.5235877 182.049534,25.5104685 L182.870847,25.8810174 C182.254195,27.8087282 180.457627,29.8353949 176.813326,29.8353949 C172.707203,29.8353949 170.165403,27.0920482 170.165403,23.4101205 C170.165403,19.0599197 173.141886,16.143079 177.095403,16.143079 C180.868729,16.143079 182.845042,18.4421954 182.845042,21.4327175 L182.845042,21.4327175 Z" id="Fill-8"></path>
                    <path d="M189.318559,20.0237751 C190.57589,17.7006693 191.731335,16.143079 193.681843,16.143079 C194.297606,16.143079 194.682903,16.2917269 194.938729,16.4896386 L194.938729,19.1340295 L193.964364,19.1340295 C192.321292,19.1340295 190.935826,19.4553146 189.318559,21.1606961 L189.318559,27.0179384 C189.318559,28.2289692 189.960127,28.3035074 191.78339,28.5009906 L191.78339,29.5882195 L184.287458,29.5882195 L184.287458,28.5009906 C185.467818,28.3527711 186.238411,28.2289692 186.238411,27.0920482 L186.238411,19.010656 L184.415148,18.0463722 L184.415148,17.3793842 L188.522606,16.1190897 L189.44714,16.1190897 L189.318559,20.0237751" id="Fill-9"></path>
                    <path d="M206.700064,23.6076037 C206.700064,20.2957965 205.134407,17.7255154 202.31053,17.7255154 C199.924004,17.7255154 198.845085,19.6776439 198.845085,22.3717269 C198.845085,25.6831058 200.436547,28.2533869 203.235064,28.2533869 C205.622034,28.2533869 206.700064,26.3261044 206.700064,23.6076037 L206.700064,23.6076037 Z M195.584746,23.2370549 C195.584746,18.8868541 198.94786,16.143079 203.029068,16.143079 C207.188581,16.143079 209.986208,18.9361178 209.986208,22.7422758 C209.986208,27.0920482 206.597733,29.8353949 202.516081,29.8353949 C198.357458,29.8353949 195.584746,27.0432129 195.584746,23.2370549 L195.584746,23.2370549 Z" id="Fill-10"></path>
                    <path d="M26.9111441,29.5882195 L19.8156356,25.2988487 L12.7196822,29.5882195 L14.7640678,21.7647122 L8.33459746,16.5928782 L16.6927754,16.0471218 L19.8156356,8.56074967 L22.9376059,16.0471218 L31.2962288,16.5928782 L24.8663136,21.7647122 L26.9111441,29.5882195 L26.9111441,29.5882195 Z M19.8156356,5.4357162 L0,0 L0,31.8757697 L19.8156356,38.5542169 L39.6303814,31.8757697 L39.6303814,0 L19.8156356,5.4357162 L19.8156356,5.4357162 Z" id="Fill-12"></path>
                </g>
            </g>
        </g>
    </g>
</svg>